<mxfile host="app.diagrams.net" modified="2024-03-12T14:19:47.769Z" agent="Mozilla/5.0 (Windows NT 10.0; Win64; x64) AppleWebKit/537.36 (KHTML, like Gecko) Chrome/122.0.0.0 Safari/537.36" etag="N2ijsiNbclBePUDXBXDD" version="24.0.5" type="device">
  <diagram name="Page-1" id="N4W_9ZxvSLRUP_Ydhn6h">
    <mxGraphModel dx="1434" dy="780" grid="1" gridSize="10" guides="1" tooltips="1" connect="1" arrows="1" fold="1" page="1" pageScale="1" pageWidth="850" pageHeight="1100" math="0" shadow="0">
      <root>
        <mxCell id="0" />
        <mxCell id="1" parent="0" />
        <mxCell id="lEvrlOor_laWq5J6AsLd-1" value="Home" style="rounded=1;whiteSpace=wrap;html=1;" vertex="1" parent="1">
          <mxGeometry x="320" y="210" width="210" height="50" as="geometry" />
        </mxCell>
        <mxCell id="lEvrlOor_laWq5J6AsLd-7" value="" style="shape=partialRectangle;whiteSpace=wrap;html=1;bottom=0;right=0;fillColor=none;rotation=-180;" vertex="1" parent="1">
          <mxGeometry x="360" y="260" width="65" height="30" as="geometry" />
        </mxCell>
        <mxCell id="lEvrlOor_laWq5J6AsLd-8" style="edgeStyle=orthogonalEdgeStyle;rounded=0;orthogonalLoop=1;jettySize=auto;html=1;exitX=0.5;exitY=0;exitDx=0;exitDy=0;" edge="1" parent="1" source="lEvrlOor_laWq5J6AsLd-7" target="lEvrlOor_laWq5J6AsLd-7">
          <mxGeometry relative="1" as="geometry" />
        </mxCell>
        <mxCell id="lEvrlOor_laWq5J6AsLd-10" value="" style="endArrow=none;html=1;rounded=0;entryX=1;entryY=0;entryDx=0;entryDy=0;" edge="1" parent="1" target="lEvrlOor_laWq5J6AsLd-7">
          <mxGeometry width="50" height="50" relative="1" as="geometry">
            <mxPoint x="240" y="290" as="sourcePoint" />
            <mxPoint x="450" y="380" as="targetPoint" />
          </mxGeometry>
        </mxCell>
        <mxCell id="lEvrlOor_laWq5J6AsLd-11" value="" style="endArrow=none;html=1;rounded=0;" edge="1" parent="1">
          <mxGeometry width="50" height="50" relative="1" as="geometry">
            <mxPoint x="240" y="320" as="sourcePoint" />
            <mxPoint x="240" y="290" as="targetPoint" />
          </mxGeometry>
        </mxCell>
        <mxCell id="lEvrlOor_laWq5J6AsLd-12" value="About US" style="rounded=1;whiteSpace=wrap;html=1;" vertex="1" parent="1">
          <mxGeometry x="200" y="320" width="70" height="30" as="geometry" />
        </mxCell>
        <mxCell id="lEvrlOor_laWq5J6AsLd-13" value="Our services" style="rounded=1;whiteSpace=wrap;html=1;" vertex="1" parent="1">
          <mxGeometry x="280" y="320" width="90" height="30" as="geometry" />
        </mxCell>
        <mxCell id="lEvrlOor_laWq5J6AsLd-14" value="Testimonials" style="rounded=1;whiteSpace=wrap;html=1;" vertex="1" parent="1">
          <mxGeometry x="385" y="320" width="80" height="30" as="geometry" />
        </mxCell>
        <mxCell id="lEvrlOor_laWq5J6AsLd-15" value="" style="endArrow=none;html=1;rounded=0;entryX=0;entryY=0.25;entryDx=0;entryDy=0;exitX=0.5;exitY=0;exitDx=0;exitDy=0;" edge="1" parent="1" source="lEvrlOor_laWq5J6AsLd-14" target="lEvrlOor_laWq5J6AsLd-7">
          <mxGeometry width="50" height="50" relative="1" as="geometry">
            <mxPoint x="400" y="430" as="sourcePoint" />
            <mxPoint x="450" y="380" as="targetPoint" />
          </mxGeometry>
        </mxCell>
        <mxCell id="lEvrlOor_laWq5J6AsLd-17" value="Contact Us" style="rounded=1;whiteSpace=wrap;html=1;" vertex="1" parent="1">
          <mxGeometry x="490" y="320" width="80" height="30" as="geometry" />
        </mxCell>
        <mxCell id="lEvrlOor_laWq5J6AsLd-18" value="" style="endArrow=none;html=1;rounded=0;" edge="1" parent="1">
          <mxGeometry width="50" height="50" relative="1" as="geometry">
            <mxPoint x="430" y="290" as="sourcePoint" />
            <mxPoint x="620" y="290" as="targetPoint" />
          </mxGeometry>
        </mxCell>
      </root>
    </mxGraphModel>
  </diagram>
</mxfile>
